<svg xmlns="http://www.w3.org/2000/svg" xmlns:xlink="http://www.w3.org/1999/xlink" version="1.1" x="0px" y="0px" viewBox="0 0 160 160" style="enable-background:new 0 0 160 160;" xml:space="preserve"><path d="M135.727,112.011c-0.775-1.145-2.331-1.444-3.472-0.669l-6.221,4.212l-6.221-4.212c-0.005-0.004-0.011-0.005-0.016-0.009  c-0.099-0.066-0.205-0.117-0.311-0.168c-0.044-0.021-0.085-0.049-0.13-0.067c-0.095-0.039-0.195-0.062-0.293-0.089  c-0.058-0.016-0.114-0.039-0.173-0.051c-0.123-0.024-0.248-0.031-0.373-0.037c-0.034-0.001-0.068-0.01-0.102-0.01  c-0.263-0.001-0.524,0.051-0.78,0.135c-0.054,0.018-0.11,0.028-0.163,0.05c-0.06,0.024-0.116,0.061-0.174,0.09  c-0.091,0.046-0.183,0.089-0.269,0.146c-0.006,0.004-0.012,0.006-0.018,0.01l-6.22,4.212l-6.22-4.212  c-1.144-0.773-2.697-0.476-3.472,0.669c-0.773,1.143-0.475,2.697,0.669,3.472l4.564,3.09l-4.564,3.09  c-1.144,0.774-1.442,2.329-0.669,3.472c0.483,0.714,1.271,1.099,2.072,1.099c0.482,0,0.971-0.139,1.399-0.43l6.22-4.212l6.22,4.212  c0.062,0.042,0.128,0.074,0.192,0.11c0.03,0.017,0.058,0.035,0.088,0.051c0.159,0.08,0.324,0.141,0.492,0.184  c0.031,0.008,0.062,0.014,0.093,0.021c0.177,0.039,0.356,0.065,0.534,0.065c0.001,0,0.001,0,0.002,0s0.001,0,0.002,0  c0.179,0,0.358-0.026,0.535-0.065c0.03-0.007,0.06-0.012,0.091-0.02c0.169-0.044,0.335-0.104,0.495-0.185  c0.029-0.014,0.055-0.032,0.083-0.048c0.065-0.036,0.132-0.069,0.195-0.112l6.221-4.212l6.221,4.212  c0.43,0.291,0.917,0.43,1.399,0.43c0.802,0,1.589-0.385,2.072-1.099c0.773-1.143,0.475-2.697-0.669-3.472l-4.564-3.09l4.564-3.09  C136.202,114.708,136.501,113.154,135.727,112.011z M118.413,120.715l-3.163-2.141l3.163-2.141l3.163,2.141L118.413,120.715z"/><path d="M44.539,88.151c-1.18-1.53-3.378-1.815-4.909-0.634c-1.531,1.181-1.815,3.378-0.634,4.909l6.922,8.977  c1.428,1.851,1.083,4.518-0.769,5.945c-0.896,0.691-2.007,0.99-3.131,0.848c-1.123-0.146-2.122-0.719-2.813-1.616l-6.708-8.698  c-1.181-1.53-3.379-1.815-4.909-0.634c-1.531,1.181-1.815,3.378-0.634,4.909l6.708,8.697c1.833,2.378,4.482,3.899,7.459,4.284  c0.49,0.063,0.978,0.094,1.463,0.094c2.468,0,4.854-0.809,6.84-2.341c4.907-3.784,5.82-10.856,2.036-15.764L44.539,88.151z"/><path d="M82.765,110.855l6.708-8.698c1.181-1.531,0.896-3.729-0.634-4.909c-1.531-1.182-3.729-0.896-4.909,0.634l-6.708,8.698  c-0.691,0.897-1.691,1.471-2.813,1.616c-1.125,0.144-2.236-0.156-3.132-0.848c-1.851-1.428-2.195-4.095-0.768-5.945l6.922-8.977  c1.181-1.531,0.896-3.729-0.634-4.909c-1.531-1.182-3.729-0.896-4.909,0.634l-6.922,8.977c-3.784,4.907-2.871,11.979,2.035,15.764  c2.041,1.573,4.454,2.335,6.851,2.335C77.22,115.226,80.554,113.722,82.765,110.855z"/><path d="M130.45,100.49H99.43c-1.16-10.96-5.63-21.37-12.89-29.8l-0.87-0.99c6.96-4.33,11.61-12.05,11.61-20.83v-0.61  c0-6.55-2.55-12.7-7.18-17.33l-0.79-0.8c-0.24-0.24-0.47-0.48-0.7-0.73c4.06-2.02,6.86-6.19,6.86-11.02v-5.75  c0-4.01-3.27-7.28-7.29-7.28h-4.63c-3.36,0-6.58,1.4-8.9,3.83c-3.83-2.45-8.37-3.83-13.2-3.83h-6.47c-4.83,0-9.37,1.38-13.21,3.83  c-2.31-2.43-5.53-3.83-8.9-3.83h-4.63c-4.01,0-7.28,3.27-7.28,7.28v5.75c0,4.83,2.8,9,6.85,11.02c-0.22,0.25-0.45,0.49-0.69,0.73  l-0.8,0.8c-4.62,4.63-7.17,10.78-7.17,17.33v0.61c0,8.78,4.64,16.5,11.61,20.83l-0.88,1.01c-8.51,9.86-13.2,22.47-13.2,35.49  c0,6.91,1.3,13.67,3.85,20.08l0.43,1.09v4.04c0,2.34,0.7,4.51,1.91,6.32l-10.12,5.63c-1,0.55-1.49,1.71-1.21,2.81  c0.29,1.1,1.29,1.87,2.42,1.87h8.14l5.61,5.84c0.48,0.51,1.14,0.77,1.8,0.77c0.41,0,0.81-0.1,1.19-0.3l8.37-4.49h9.99  c0.98,0,1.87-0.57,2.28-1.46c0.4-0.89,0.26-1.93-0.38-2.67l-6.9-8.02h28.31l-6.9,8.02c-0.64,0.74-0.79,1.78-0.38,2.67  c0.41,0.89,1.3,1.46,2.27,1.46h10l8.37,4.49c0.37,0.2,0.78,0.3,1.18,0.3c0.67,0,1.32-0.26,1.81-0.77l5.61-5.84h8.13  c1.14,0,2.14-0.77,2.42-1.87c0.29-1.1-0.21-2.26-1.2-2.81l-10.12-5.63c0.23-0.34,0.44-0.7,0.63-1.07h36.26  c9.97,0,18.09-8.11,18.09-18.09C148.54,108.6,140.42,100.49,130.45,100.49z M83.55,12.35h4.63c0.16,0,0.29,0.13,0.29,0.28v5.75  c0,2.24-1.41,4.15-3.38,4.93c-0.06-0.17-0.12-0.34-0.17-0.51c-1.03-3.43-2.75-6.47-4.97-9.04C80.93,12.86,82.22,12.35,83.55,12.35z   M27.96,12.63c0-0.15,0.13-0.28,0.28-0.28h4.63c1.34,0,2.63,0.51,3.6,1.41c-2.21,2.57-3.93,5.61-4.96,9.04  c-0.05,0.17-0.12,0.34-0.17,0.51c-1.98-0.78-3.38-2.69-3.38-4.93V12.63z M26.15,48.87v-0.61c0-4.68,1.82-9.07,5.12-12.38l0.8-0.8  c1.89-1.88,3.44-4.08,4.63-6.46c0.01-0.03,0.03-0.07,0.04-0.1c0.59-1.19,1.09-2.43,1.47-3.71c0.98-3.24,2.81-6.02,5.21-8.13  c0.09-0.07,0.19-0.13,0.27-0.21c0.03-0.02,0.05-0.06,0.08-0.08c3.06-2.55,6.98-4.04,11.21-4.04h6.47c4.23,0,8.15,1.49,11.21,4.04  c0.02,0.02,0.04,0.06,0.07,0.08c0.09,0.08,0.19,0.14,0.28,0.21c2.4,2.11,4.23,4.89,5.21,8.13c0.38,1.28,0.88,2.51,1.46,3.7  c0.02,0.04,0.04,0.08,0.06,0.12c1.18,2.38,2.73,4.57,4.62,6.45l0.79,0.8c3.31,3.31,5.13,7.7,5.13,12.38v0.61  c0,8.85-6.6,16.17-15.14,17.33c0.37-1.08,0.59-2.24,0.59-3.44v-2.35c0-1.94-1.57-3.5-3.5-3.5s-3.5,1.56-3.5,3.5v2.35  c0,1.93-1.57,3.51-3.51,3.51c-1.93,0-3.51-1.58-3.51-3.51v-7.99l5.56-6.22c1.23-1.38,1.53-3.29,0.77-4.98  c-0.76-1.69-2.38-2.74-4.23-2.74H52.62c-1.85,0-3.47,1.05-4.23,2.74s-0.46,3.6,0.77,4.98l5.55,6.22v7.99c0,1.93-1.57,3.51-3.51,3.51  c-1.93,0-3.5-1.58-3.5-3.51v-2.35c0-1.94-1.57-3.5-3.5-3.5c-1.94,0-3.5,1.56-3.5,3.5v2.35c0,1.2,0.21,2.36,0.59,3.44  C32.75,65.04,26.15,57.72,26.15,48.87z M60.71,72.23c1.37,0.66,2.9,1.04,4.51,1.04c0.04,0,0.07-0.01,0.1-0.01  c0.12,0.03,0.24,0.05,0.36,0.07v5.09c0,1.17-0.96,2.13-2.14,2.13h-0.69c-1.18,0-2.14-0.96-2.14-2.13V72.23z M58.21,51.18l-4.77-5.35  h9.55L58.21,51.18z M55.71,72.23v6.19c0,1.17-0.95,2.13-2.13,2.13h-0.7c-1.18,0-2.13-0.96-2.13-2.13v-5.09  c0.12-0.02,0.24-0.04,0.35-0.07c0.04,0,0.07,0.01,0.1,0.01C52.82,73.27,54.35,72.89,55.71,72.23z M38.44,144.86  c-0.41,0-0.82,0.1-1.18,0.29l-7.26,3.9l-5.03-5.24c-0.38-0.4-0.88-0.65-1.42-0.74l3.14-1.74c1.69,0.99,3.66,1.57,5.75,1.57  c2.69,0,5.23-0.98,7.24-2.62l3.93,4.58H38.44z M39.91,130.71c-1.45,0-2.76,0.91-3.27,2.27c-0.66,1.74-2.34,2.92-4.2,2.92  c-2.47,0-4.48-2.02-4.48-4.49v-4.71c0-0.45-0.08-0.89-0.25-1.3l-0.68-1.7c-2.22-5.59-3.35-11.48-3.35-17.5  c0-11.34,4.09-22.33,11.48-30.9l2.36-2.7c1.96,0.51,4.02,0.78,6.14,0.78h2.09v5.04c0,3.93,3.2,7.13,7.13,7.13h0.7  c1.77,0,3.39-0.65,4.63-1.72c1.25,1.07,2.87,1.72,4.64,1.72h0.69c3.94,0,7.14-3.2,7.14-7.13v-5.04h2.09c2.12,0,4.18-0.27,6.14-0.78  l2.34,2.68c7.41,8.59,11.49,19.58,11.49,30.92c0,6.02-1.12,11.9-3.35,17.5l-0.68,1.7c-0.16,0.42-0.24,0.85-0.24,1.3v4.71  c0,2.47-2.01,4.49-4.49,4.49c-1.85,0-3.54-1.18-4.19-2.92c-0.51-1.36-1.82-2.27-3.28-2.27H39.91z M91.46,143.81l-5.03,5.24  l-7.26-3.9c-0.36-0.19-0.77-0.29-1.18-0.29h-5.17l3.93-4.58c2.01,1.64,4.55,2.62,7.23,2.62c2.1,0,4.07-0.58,5.76-1.57l3.13,1.74  C92.34,143.16,91.84,143.41,91.46,143.81z M130.45,129.66H95.47v-2.29l0.43-1.09c2.39-6.02,3.66-12.33,3.81-18.79h30.74  c6.11,0,11.09,4.97,11.09,11.08C141.54,124.69,136.56,129.66,130.45,129.66z"/><path d="M48.59,33.12c0,1.67-1.37,3.04-3.04,3.04c-1.68,0-3.05-1.37-3.05-3.04c0-1.68,1.37-3.04,3.05-3.04  C47.22,30.08,48.59,31.44,48.59,33.12z"/><circle cx="70.88" cy="33.12" r="3.04"/><text x="0" y="175" fill="#000000" font-size="5px" font-weight="bold" font-family="'Helvetica Neue', Helvetica, Arial-Unicode, Arial, Sans-serif">Created by Symbolon</text><text x="0" y="180" fill="#000000" font-size="5px" font-weight="bold" font-family="'Helvetica Neue', Helvetica, Arial-Unicode, Arial, Sans-serif">from the Noun Project</text></svg>
